<svg width="1933" height="902" xmlns="http://www.w3.org/2000/svg" xmlns:xlink="http://www.w3.org/1999/xlink" overflow="hidden"><defs><clipPath id="clip0"><rect x="634" y="834" width="1933" height="902"/></clipPath></defs><g clip-path="url(#clip0)" transform="translate(-634 -834)"><rect x="640.5" y="837.5" width="909" height="733" stroke="#000000" stroke-width="3.4375" stroke-linejoin="round" stroke-miterlimit="10" fill="#FFFFFF"/><text fill="#7F6000" font-family="Consolas,Consolas_MSFontService,sans-serif" font-weight="700" font-size="64" transform="matrix(1 0 0 1 672.971 915)">mdu<tspan font-size="64" x="106.563" y="0">_</tspan><tspan font-size="64" x="142.083" y="0">update_dependence_1</tspan><tspan fill="#000000" font-weight="400" font-size="64" x="816.979" y="0">:</tspan><tspan fill="#0070C0" font-size="64" x="142.083" y="77">movq</tspan><tspan fill="#000000" font-weight="400" font-size="64" x="319.688" y="77">(%</tspan><tspan fill="#000000" font-weight="400" font-size="64" x="390.729" y="77">rdi</tspan><tspan fill="#000000" font-weight="400" font-size="64" x="497.292" y="77">), %</tspan><tspan fill="#000000" font-weight="400" font-size="64" x="639.375" y="77">rdi</tspan><tspan fill="#0070C0" font-size="64" x="142.083" y="154">movq</tspan><tspan fill="#548235" font-size="64" x="319.688" y="154">$0</tspan><tspan fill="#000000" font-weight="400" font-size="64" x="390.729" y="154">, (%</tspan><tspan fill="#000000" font-weight="400" font-size="64" x="532.813" y="154">rdi</tspan><tspan fill="#000000" font-weight="400" font-size="64" x="639.375" y="154">)</tspan><tspan fill="#0070C0" font-size="64" x="142.083" y="231">nop</tspan><tspan fill="#0070C0" font-size="64" x="142.083" y="308">nop</tspan><tspan fill="#0070C0" font-size="64" x="142.083" y="385">nop</tspan><tspan fill="#0070C0" font-size="64" x="142.083" y="462">mov</tspan><tspan fill="#0070C0" font-size="64" x="248.646" y="462">q</tspan><tspan fill="#000000" font-weight="400" font-size="64" x="319.688" y="462">(%rsi), %</tspan><tspan fill="#000000" font-weight="400" font-size="64" x="639.375" y="462">rsi</tspan><tspan fill="#0070C0" font-size="64" x="142.083" y="539">lfence</tspan><tspan fill="#0070C0" font-size="64" x="142.083" y="616">ret</tspan><tspan fill="#000000" font-family="Calibri,Calibri_MSFontService,sans-serif" font-size="83" x="103.144" y="749">Update rate: 100%</tspan></text><rect x="1643.5" y="837.5" width="909" height="733" stroke="#000000" stroke-width="3.4375" stroke-linejoin="round" stroke-miterlimit="10" fill="#FFFFFF"/><text fill="#7F6000" font-family="Consolas,Consolas_MSFontService,sans-serif" font-weight="700" font-size="64" transform="matrix(1 0 0 1 1675.58 915)">mdu<tspan font-size="64" x="106.563" y="0">_</tspan><tspan font-size="64" x="142.083" y="0">update_dependence_2</tspan><tspan fill="#000000" font-weight="400" font-size="64" x="816.979" y="0">:</tspan><tspan fill="#0070C0" font-size="64" x="142.083" y="77">movq</tspan><tspan fill="#000000" font-weight="400" font-size="64" x="319.687" y="77">(%</tspan><tspan fill="#000000" font-weight="400" font-size="64" x="390.729" y="77">rdi</tspan><tspan fill="#000000" font-weight="400" font-size="64" x="497.292" y="77">), %</tspan><tspan fill="#000000" font-weight="400" font-size="64" x="639.375" y="77">rdi</tspan><tspan fill="#0070C0" font-size="64" x="142.083" y="154">movq</tspan><tspan fill="#548235" font-size="64" x="319.687" y="154">$0</tspan><tspan fill="#000000" font-weight="400" font-size="64" x="390.729" y="154">, (%</tspan><tspan fill="#000000" font-weight="400" font-size="64" x="532.813" y="154">rdi</tspan><tspan fill="#000000" font-weight="400" font-size="64" x="639.375" y="154">)</tspan><tspan fill="#0070C0" font-size="64" x="142.083" y="231">mov</tspan><tspan fill="#000000" font-weight="400" font-size="64" x="284.167" y="231">%rdi, %r</tspan><tspan fill="#000000" font-weight="400" font-size="64" x="568.333" y="231">ax</tspan><tspan fill="#C00000" font-size="64" x="142.083" y="308">and</tspan><tspan fill="#548235" font-size="64" x="284.167" y="308">$0</tspan><tspan fill="#000000" font-weight="400" font-size="64" x="355.208" y="308">, %r</tspan><tspan fill="#000000" font-weight="400" font-size="64" x="497.292" y="308">ax</tspan><tspan fill="#0070C0" font-size="64" x="142.083" y="385">or</tspan><tspan fill="#000000" font-weight="400" font-size="64" x="248.646" y="385">%r</tspan><tspan fill="#000000" font-weight="400" font-size="64" x="319.687" y="385">ax</tspan><tspan fill="#000000" font-weight="400" font-size="64" x="390.729" y="385">, %rsi</tspan><tspan fill="#0070C0" font-size="64" x="142.083" y="462">mov</tspan><tspan fill="#0070C0" font-size="64" x="248.646" y="462">q</tspan><tspan fill="#000000" font-weight="400" font-size="64" x="319.687" y="462">(%rsi), %</tspan><tspan fill="#000000" font-weight="400" font-size="64" x="639.375" y="462">rsi</tspan><tspan fill="#0070C0" font-size="64" x="142.083" y="539">lfence</tspan><tspan fill="#0070C0" font-size="64" x="142.083" y="616">ret</tspan><tspan fill="#000000" font-family="Calibri,Calibri_MSFontService,sans-serif" font-size="83" x="174.177" y="749">Update rate: 0</tspan></text></g></svg>